<svg xmlns="http://www.w3.org/2000/svg" width="18.447" height="19.866" viewBox="0 0 18.447 19.866"><defs><style>.a{fill:#229de8;}</style></defs><g transform="translate(-18.276)"><path class="a" d="M36.3,3.259a1.363,1.363,0,0,0-1-.421H33.885V1.774A1.708,1.708,0,0,0,33.364.521,1.708,1.708,0,0,0,32.111,0H31.4a1.708,1.708,0,0,0-1.253.521,1.708,1.708,0,0,0-.521,1.253V2.838H25.371V1.774A1.708,1.708,0,0,0,24.85.521,1.708,1.708,0,0,0,23.6,0h-.709a1.708,1.708,0,0,0-1.253.521,1.708,1.708,0,0,0-.521,1.253V2.838H19.7a1.364,1.364,0,0,0-1,.421,1.364,1.364,0,0,0-.421,1v14.19A1.439,1.439,0,0,0,19.7,19.866H35.3a1.439,1.439,0,0,0,1.419-1.419V4.257A1.364,1.364,0,0,0,36.3,3.259ZM22.888,18.447H19.7V15.254h3.193Zm0-3.9H19.7V11h3.193Zm0-4.257H19.7V7.1h3.193Zm-.249-5.072a.341.341,0,0,1-.105-.249V1.774a.36.36,0,0,1,.355-.355H23.6a.36.36,0,0,1,.355.355V4.967a.36.36,0,0,1-.355.355h-.709A.341.341,0,0,1,22.639,5.216Zm4.506,13.231H23.6V15.254h3.548v3.193Zm0-3.9H23.6V11h3.548v3.547Zm0-4.257H23.6V7.1h3.548v3.193ZM31.4,18.447H27.855V15.254H31.4Zm0-3.9H27.855V11H31.4Zm0-4.257H27.855V7.1H31.4Zm-.25-5.072a.341.341,0,0,1-.105-.249V1.774a.359.359,0,0,1,.355-.355h.709a.359.359,0,0,1,.355.355V4.967a.359.359,0,0,1-.355.355H31.4A.34.34,0,0,1,31.153,5.216ZM35.3,18.447H32.111V15.254H35.3Zm0-3.9H32.111V11H35.3Zm0-4.257H32.111V7.1H35.3Z"/></g></svg>