<svg xmlns="http://www.w3.org/2000/svg" xmlns:xlink="http://www.w3.org/1999/xlink" width="43.209" height="39.738" viewBox="0 0 43.209 39.738"><defs><style>.a{fill:#229de8;}.b{fill:#b60b05;}.c{fill:#fff;}.d{filter:url(#a);}</style><filter id="a" x="11.172" y="0" width="32.036" height="32.036" filterUnits="userSpaceOnUse"><feOffset dy="3" input="SourceAlpha"/><feGaussianBlur stdDeviation="3" result="b"/><feFlood flood-opacity="0.161"/><feComposite operator="in" in2="b"/><feComposite in="SourceGraphic"/></filter></defs><g transform="translate(-0.007 1.738)"><path class="a" d="M206.812,16.106V12.836h-3.271V9.7h3.271V6.425h1.57V0a11.268,11.268,0,0,0-9.735,16.938l-2.031,6.094L202.71,21a11.2,11.2,0,0,0,5.672,1.531V16.106Z" transform="translate(-181.174)"/><path class="a" d="M346.493,0V6.425h1.57V9.7h3.271v3.14h-3.271v3.271h-1.57v6.425a11.266,11.266,0,0,0,0-22.531Z" transform="translate(-319.753)"/><path class="b" d="M11.191,106.335l2.648-2.648L5.024,94.873l-1.108,1.02a19.326,19.326,0,0,0-1.773,1.92A8.559,8.559,0,0,0,.03,102.137c-.335,3.637,3.039,9.578,8.6,15.135l6.751-6.751Z" transform="translate(0 -87.425)"/><path class="b" d="M120.738,298.386l-4.187-4.187L109.8,300.95a41.614,41.614,0,0,0,7.712,6.167c1.856,1.119,4.559,2.453,6.891,2.453.181,0,.36-.008.532-.024a8.561,8.561,0,0,0,4.325-2.113,19.33,19.33,0,0,0,1.92-1.773l1.02-1.108-8.814-8.814Z" transform="translate(-101.641 -271.571)"/><g class="d" transform="matrix(1, 0, 0, 1, 0.01, -1.74)"><path class="c" d="M7.018,0A7.018,7.018,0,1,1,0,7.018,7.018,7.018,0,0,1,7.018,0Z" transform="translate(20.17 6)"/></g><path class="b" d="M288.534,85.54h-3.7v3.554h3.7v3.7h3.554v-3.7h3.7V85.54h-3.7v-3.7h-3.554Z" transform="translate(-263.103 -76.052)"/></g></svg>