<svg xmlns="http://www.w3.org/2000/svg" width="11.377" height="21.043" viewBox="0 0 11.377 21.043"><defs><style>.a{fill:#fff;}</style></defs><path class="a" d="M33.026,0,30.3,0A4.792,4.792,0,0,0,25.25,5.179V7.567H22.506A.429.429,0,0,0,22.077,8v3.46a.429.429,0,0,0,.429.429H25.25v8.73a.429.429,0,0,0,.429.429h3.58a.429.429,0,0,0,.429-.429v-8.73H32.9a.429.429,0,0,0,.429-.429V8a.429.429,0,0,0-.429-.429H29.688V5.542c0-.973.232-1.467,1.5-1.467h1.838a.429.429,0,0,0,.429-.429V.433A.429.429,0,0,0,33.026,0Z" transform="translate(-22.077)"/></svg>