<svg xmlns="http://www.w3.org/2000/svg" xmlns:xlink="http://www.w3.org/1999/xlink" width="466.682" height="426" viewBox="0 0 466.682 426"><defs><style>.a,.c{opacity:0.5;}.b,.c{fill:#e1f4ff;}.d,.e,.n{fill:none;stroke-linejoin:round;}.d,.e{stroke:#229de8;stroke-dasharray:14 13;}.d{stroke-width:3px;}.e{stroke-width:5px;}.f{fill:#b60b05;}.g{fill:#f7f7f7;}.h{fill:#f9fcfe;}.i{fill:#c5cbcc;}.j,.k{fill:#333;}.k{opacity:0.1;}.l{fill:#229de8;}.m{fill:#fffffc;font-size:12.139px;font-family:SegoeUI, Segoe UI;letter-spacing:0.08em;}.n{stroke:#c5cbcc;stroke-width:2px;}.o{fill:#3c3633;opacity:0.12;}.p{fill:#580300;}.q{fill:#eef6ff;}.r{fill:#c6dffa;}.s{fill:#1a3555;}.t{fill:#fff;}.u{fill:#f8f8f8;}.v{fill:#edf2f2;}.w{fill:#2ba9f5;}.x{fill:#9b0803;}.y{fill:#0599f3;}.z{filter:url(#a);}</style><filter id="a" x="97.117" y="33.067" width="266.899" height="340.678" filterUnits="userSpaceOnUse"><feOffset dy="3" input="SourceAlpha"/><feGaussianBlur stdDeviation="3" result="b"/><feFlood flood-opacity="0.161"/><feComposite operator="in" in2="b"/><feComposite in="SourceGraphic"/></filter></defs><g transform="translate(-110 -837)"><g transform="translate(93.341 804)"><g class="a" transform="translate(0 -18)"><path class="b" d="M483.341,415.5A12.476,12.476,0,0,0,471.022,403h.964a12,12,0,1,1,0-24h-.964c6.8,0,12.319-6.2,12.319-13s-5.516-13-12.319-13H374.07c-6.8,0-12.317,6.2-12.317,13s5.514,13,12.317,13h23.841a12,12,0,1,1,0,24H374.07a12.5,12.5,0,0,0,0,25h-.529c6.8,0,12.316,4.7,12.316,11.5S380.343,451,373.541,451h.529c-6.8,0-12.317,6.2-12.317,13s5.514,13,12.317,13h96.952c6.8,0,12.319-6.2,12.319-13s-5.516-13-12.319-13h2.833c-6.8,0-12.317-4.7-12.317-11.5s5.514-11.5,12.317-11.5h-2.833A12.475,12.475,0,0,0,483.341,415.5Z"/><path class="b" d="M147.074,62c0-5.668-4.594-11-10.261-11H63.331C57.664,51,53.07,56.332,53.07,62s4.594,11,10.261,11H75.908a10,10,0,1,1,0,20H56.049a10.5,10.5,0,0,0,0,21h-.442a10,10,0,1,1,0,20H26.92a10.5,10.5,0,0,0,0,21H136.813a10.5,10.5,0,0,0,0-21h2.361a10,10,0,1,1,0-20h-2.361a10.5,10.5,0,0,0,0-21h.8a10,10,0,1,1,0-20h-.8C142.48,73,147.074,67.667,147.074,62Z"/></g><rect class="c" width="50" height="24" rx="11.958" transform="translate(84 296)"/><rect class="c" width="50" height="24" rx="11.958" transform="translate(342 105)"/><rect class="c" width="50" height="24" rx="11.958" transform="translate(420 68)"/><rect class="c" width="50" height="24" rx="11.958" transform="translate(46 334)"/><circle class="d" cx="128" cy="128" r="128" transform="translate(65 45)"/><circle class="e" cx="107" cy="107" r="107" transform="translate(235 163)"/><circle class="f" cx="9" cy="9" r="9" transform="translate(59 141)"/><circle class="f" cx="9" cy="9" r="9" transform="translate(221 41)"/><circle class="f" cx="9" cy="9" r="9" transform="translate(425 207)"/><circle class="f" cx="9" cy="9" r="9" transform="translate(396 349)"/><g class="z" transform="matrix(1, 0, 0, 1, 16.66, 33)"><path class="g" d="M371.675,394.745V90.626a18.56,18.56,0,0,0-18.559-18.559H141.334a18.559,18.559,0,0,0-18.558,18.559V394.745Z" transform="translate(-16.66 -33)"/></g><rect class="h" width="223" height="273" transform="translate(135 121)"/><path class="i" d="M278,109.5a2.5,2.5,0,0,1-2.5,2.5h-59a2.5,2.5,0,0,1-2.5-2.5h0a2.5,2.5,0,0,1,2.5-2.5h59a2.5,2.5,0,0,1,2.5,2.5Z"/><path class="j" d="M251.318,96.812a4.093,4.093,0,1,1-4.093-4.093A4.094,4.094,0,0,1,251.318,96.812Z"/><rect class="j" width="5" height="10" transform="translate(325 133)"/><rect class="j" width="4" height="10" transform="translate(331 133)"/><rect class="j" width="5" height="10" transform="translate(336 133)"/><rect class="j" width="4" height="10" transform="translate(342 133)"/><rect class="j" width="2" height="3" transform="translate(345 136)"/><path class="j" d="M153.059,137.747a2.466,2.466,0,1,1-2.466-2.467A2.466,2.466,0,0,1,153.059,137.747Z"/><path class="j" d="M163.3,137.747a2.465,2.465,0,1,1-2.465-2.467A2.465,2.465,0,0,1,163.3,137.747Z"/><path class="j" d="M173.54,137.747a2.465,2.465,0,1,1-2.464-2.467A2.465,2.465,0,0,1,173.54,137.747Z"/><rect class="k" width="223" height="6" transform="translate(135 121)"/><path class="f" d="M177.985,308H86.568L93,313.736v24.358A6.3,6.3,0,0,0,99.034,344h78.951c3.06,0,5.015-2.847,5.015-5.906V313.162A4.8,4.8,0,0,0,177.985,308Z"/><path class="l" d="M314.017,280h91.415L398,286.48v24.358A4.816,4.816,0,0,1,392.967,316h-78.95c-3.062,0-6.017-2.1-6.017-5.162V285.906A6.286,6.286,0,0,1,314.017,280Z"/><text class="m" transform="translate(105.627 331.476)"><tspan x="0" y="0">QUESTION</tspan></text><text class="m" transform="translate(324.157 302.158)"><tspan x="0" y="0">ANSWER</tspan></text><line class="n" x2="18" transform="translate(154 270)"/><line class="n" x2="18" transform="translate(158 275)"/><line class="n" x2="18" transform="translate(320 206)"/><line class="n" x2="18" transform="translate(324 211)"/><line class="n" x2="18" transform="translate(318 357)"/><line class="n" x2="18" transform="translate(322 362)"/><rect class="o" width="273" height="0.5" transform="translate(111 396)"/></g><g transform="translate(202.215 640.165)"><g transform="translate(73.699 319.957)"><g transform="translate(20.383 49.415)"><path class="p" d="M277.337,164.126s6.152,22.458-5.653,30.164a12.745,12.745,0,0,0,1.553-7.967s-1.427,13.22-28.143,13.22V171.052Z" transform="translate(-212.21 -164.126)"/><path class="p" d="M211.431,164.126s-6.153,22.458,5.652,30.164a12.745,12.745,0,0,1-1.553-7.967s1.428,13.22,28.144,13.22V171.052Z" transform="translate(-209.828 -164.126)"/></g><g transform="translate(35.237 76.29)"><path class="q" d="M258.348,224.716c3.753-6.953,8.165-7.006,7.181-17.154,0,0-12.984-2.035-12.926-14.055,0,0-4.329,2.232-8.017,2.371s-7.947-2.931-7.947-2.931S235.565,206,225.986,208.389c-1.274,10.542,2.909,21.138,9.068,26.551C239.552,238.9,254.887,231.124,258.348,224.716Z" transform="translate(-225.758 -192.948)"/><path class="r" d="M257.542,203.348h0c-1.992-2.3-4.177-5.417-4.156-9.811,0,0-4.329,2.232-8.017,2.371-2.848.111-6.024-1.688-7.33-2.52l-.664.76c-.007.126-.017.259-.029.4C238.554,196.172,247.963,207.273,257.542,203.348Z" transform="translate(-226.54 -192.978)"/></g><path class="q" d="M273.536,154.5c1.358-41.913-29.855-38.876-29.867-38.876S212.446,112.589,213.8,154.5c0,0-.042,17.5,4.659,24.046,6.176,8.6,17.493,13.1,25.207,13.1s19.134-3.931,25.209-13.1C273.673,171.308,273.536,154.5,273.536,154.5Z" transform="translate(-189.71 -111.431)"/><g transform="translate(19.446 44.598)"><g transform="translate(62.632)"><path class="q" d="M276.979,160.982s1.849-3.623,3.9-1.17,1.656,12.451-4.89,12.463C275.993,172.275,276.947,163.357,276.979,160.982Z" transform="translate(-275.993 -158.96)"/><path class="r" d="M277.081,164.886s1.326-3.557,2.643-1.723.648,4.207-1.321,5.821C278.4,168.984,279.294,162.516,277.081,164.886Z" transform="translate(-276.066 -159.208)"/></g><path class="q" d="M213.768,160.982s-1.848-3.623-3.906-1.17-1.4,12.451,5.145,12.463C215.007,172.275,213.8,163.357,213.768,160.982Z" transform="translate(-208.823 -158.96)"/><path class="r" d="M213.853,164.886s-1.326-3.557-2.642-1.723-.65,4.207,1.319,5.821C212.53,168.984,211.64,162.516,213.853,164.886Z" transform="translate(-208.938 -159.208)"/></g><g transform="translate(34.373 45.715)"><g transform="translate(7.399 10.505)"><path class="p" d="M249.144,173.633c0,1.219-1.567,2.207-3.5,2.207s-3.5-.988-3.5-2.207,1.567-2.209,3.5-2.209S249.144,172.413,249.144,173.633Z" transform="translate(-233.4 -171.424)"/><path class="p" d="M232.766,178.929s.366.206,1.024.5a27.018,27.018,0,0,0,2.743,1.091c.566.211,1.2.364,1.858.56.666.16,1.371.313,2.1.438l1.115.157c.375.061.763.044,1.146.085a15.367,15.367,0,0,0,2.336.009c.785.009,1.557-.163,2.327-.23l2.23-.47,2.05-.648a6.612,6.612,0,0,0,.935-.364l.873-.36a14.66,14.66,0,0,0,1.525-.673c.438-.233.835-.421,1.161-.582.654-.315,1.043-.485,1.043-.485s-.293.294-.832.79c-.271.245-.6.549-.992.881a9.281,9.281,0,0,1-1.4,1.011,14.76,14.76,0,0,1-1.762,1.059c-.666.3-1.362.652-2.115.937-.773.215-1.563.506-2.395.674a24.174,24.174,0,0,1-2.56.321,17.056,17.056,0,0,1-2.578-.078,14.709,14.709,0,0,1-2.453-.432,16.625,16.625,0,0,1-2.2-.725,15.11,15.11,0,0,1-1.856-.9,13.893,13.893,0,0,1-1.465-.926,13.267,13.267,0,0,1-1.043-.829A7.489,7.489,0,0,1,232.766,178.929Z" transform="translate(-232.766 -171.866)"/></g><g transform="translate(31.692)"><path class="s" d="M266.219,163.858a3.7,3.7,0,1,1-3.7-3.7A3.7,3.7,0,0,1,266.219,163.858Z" transform="translate(-258.819 -160.158)"/><path class="t" d="M265.168,162.224a1.19,1.19,0,1,1-1.192-1.189A1.19,1.19,0,0,1,265.168,162.224Z" transform="translate(-259.087 -160.217)"/></g><path class="s" d="M232.23,163.858a3.7,3.7,0,1,1-3.7-3.7A3.7,3.7,0,0,1,232.23,163.858Z" transform="translate(-224.831 -160.158)"/><path class="t" d="M231.179,162.224a1.19,1.19,0,1,1-1.191-1.189A1.191,1.191,0,0,1,231.179,162.224Z" transform="translate(-225.099 -160.217)"/></g><g transform="translate(0 86.546)"><g transform="translate(13.37)"><path class="u" d="M283.923,215.225c-2.238-2.581-28.982-11.278-28.982-11.278l-11.72,8.519L231.5,203.947s-26.743,8.7-28.981,11.278S216.6,240.178,216.6,240.178l2.7,46.218h48.59l1.946-46.218S286.16,217.806,283.923,215.225Z" transform="translate(-202.307 -203.947)"/><g transform="translate(20.859)"><path class="f" d="M233.01,203.947l-8.333,2.8,12.386,15.566,7.669-9.849Z" transform="translate(-224.677 -203.947)"/><path class="f" d="M257.9,203.947l8.442,2.8-12.388,15.566-7.775-9.849Z" transform="translate(-226.13 -203.947)"/><g transform="translate(17.642 18.892)"><path class="f" d="M248.421,226.62a2.412,2.412,0,1,1-2.411-2.412A2.412,2.412,0,0,1,248.421,226.62Z" transform="translate(-243.597 -224.208)"/><path class="f" d="M248.421,244.616a2.412,2.412,0,1,1-2.411-2.412A2.412,2.412,0,0,1,248.421,244.616Z" transform="translate(-243.597 -225.424)"/><path class="f" d="M248.421,262.612a2.412,2.412,0,1,1-2.411-2.413A2.409,2.409,0,0,1,248.421,262.612Z" transform="translate(-243.597 -226.639)"/><path class="f" d="M248.421,280.6a2.412,2.412,0,1,1-2.411-2.411A2.411,2.411,0,0,1,248.421,280.6Z" transform="translate(-243.597 -227.855)"/></g></g></g><g transform="translate(0 0.949)"><path class="t" d="M205.716,286.268c3.569-24.574,7.882-41.756,7.882-41.756-1.878,11.822-3.621,26.833-5.122,41.756H231.25l-3.592-81.3c-10.387.933-28.626,10.329-28.626,10.329-4.363,7.084-8.35,41.382-11.064,70.974Z" transform="translate(-187.968 -204.965)"/><path class="v" d="M229.687,204.965l-10.775,7.219,6.321,6.578L218,224.125l13.964,32.343Z" transform="translate(-189.997 -204.965)"/></g><g transform="translate(64.779 0.949)"><path class="t" d="M282.974,286.268c-3.569-24.574-7.882-41.756-7.882-41.756,1.878,11.822,3.621,26.833,5.121,41.756H257.44l3.592-81.3c10.387.933,28.626,10.329,28.626,10.329,4.364,7.084,8.35,41.382,11.063,70.974Z" transform="translate(-257.44 -204.965)"/><path class="v" d="M261.113,204.966l10.776,7.219-6.321,6.578,7.234,5.362-13.963,32.343Z" transform="translate(-257.534 -204.965)"/></g></g><path class="p" d="M225.369,131.186s2.657,15.95,17.016,20.64c0,0-7.035-11.555-7.818-14.922,0,0,10.332,16.738,18.993,18.827,0,0-8.188-13.562-7.826-16.669,0,0,5.778,17.71,26.79,19.217,0,0,2.77-2.312,4.068-1.432,0,0,4.092-48.618-32.6-45.479,0,0-36.44-6.243-34.264,45.479,0,0,2.2-1.334,4.118,1.432C213.841,158.278,223.259,143.1,225.369,131.186Z" transform="translate(-189.431 -111.131)"/><path class="s" d="M221.709,154.042a4.991,4.991,0,0,1,1.12-1.431,7.644,7.644,0,0,1,1.518-1.111,7.545,7.545,0,0,1,.973-.449,6.67,6.67,0,0,1,1.062-.327,7.147,7.147,0,0,1,1.1-.173,7.429,7.429,0,0,1,1.075-.016,6.936,6.936,0,0,1,.992.134,7.767,7.767,0,0,1,1.554.5c.2.1.369.2.507.273.276.159.423.262.423.262s-.187.008-.5.006c-.156,0-.344,0-.553-.02s-.451.014-.7,0c-.255.007-.526-.01-.812.017s-.584.022-.889.067-.619.054-.932.122-.636.1-.946.188a15.115,15.115,0,0,0-1.834.538c-.578.213-1.121.434-1.584.648C222.352,153.693,221.709,154.042,221.709,154.042Z" transform="translate(-190.247 -113.792)"/></g><g transform="translate(83.247 405.35)"><g transform="translate(0 0.015)"><g transform="translate(0 22.066)"><path class="w" d="M224.963,240.2c-.927-2.638-1.709-5.388-2.815-7.956-1.989-4.615-4.258-5.856-9.046-5.856a1.181,1.181,0,0,1-.785,0c-4.788,0-7.058,1.241-9.046,5.856-1.106,2.568-1.889,5.318-2.816,7.956-1.206,3.43-2.473,6.807-2.213,10.515.282,4.029,4.9,4.3,7.89,4.3a1.166,1.166,0,0,0,0-2.331c-8.7,0-4.748-8.119-3.136-12.7l1.959-5.576c1.289-3.664,3.063-5.689,7.361-5.689a1.181,1.181,0,0,1,.785,0c4.3,0,6.072,2.024,7.36,5.689q.98,2.788,1.96,5.576c1.611,4.585,5.565,12.7-3.137,12.7a1.166,1.166,0,0,0,0,2.331c2.988,0,7.609-.275,7.891-4.3C227.436,247.009,226.168,243.633,224.963,240.2Z" transform="translate(-198.208 -226.391)"/><g transform="translate(6.401 25.182)"><path class="x" d="M209.459,255.551a2.193,2.193,0,1,1-2.193-2.153A2.175,2.175,0,0,1,209.459,255.551Z" transform="translate(-205.073 -253.398)"/><path class="x" d="M222.128,255.551a2.193,2.193,0,1,1-2.193-2.153A2.175,2.175,0,0,1,222.128,255.551Z" transform="translate(-205.929 -253.398)"/></g></g><g transform="translate(13.335)"><path class="y" d="M214.841,224.859c.38-10.244,6.027-18.654,16.212-20.045,1.484-.2,2.294-2.275.824-2.075-11.22,1.534-18.951,10.9-19.368,22.12-.056,1.5,2.275,1.5,2.331,0Z" transform="translate(-212.509 -202.726)"/></g></g><g transform="translate(55.951 0)"><path class="y" d="M277.3,224.858c-.381-10.244-6.708-18.973-16.893-20.365-1.483-.2-3.08-1.968-1.61-1.768,11.22,1.535,20.118,8.181,20.834,22.133.078,1.5-2.276,1.5-2.331,0Z" transform="translate(-258.213 -202.71)"/><g transform="translate(14.546 19.347)"><path class="y" d="M284.857,228.981a5.522,5.522,0,1,1-5.522-5.522A5.522,5.522,0,0,1,284.857,228.981Z" transform="translate(-273.813 -223.459)"/><path class="x" d="M282.936,229.131a3.451,3.451,0,1,1-3.451-3.452A3.451,3.451,0,0,1,282.936,229.131Z" transform="translate(-273.963 -223.609)"/></g></g></g></g></g></svg>