<svg xmlns="http://www.w3.org/2000/svg" width="29.917" height="29.918" viewBox="0 0 29.917 29.918"><defs><style>.a{fill:#229de8;}</style></defs><g transform="translate(0 -0.003)"><g transform="translate(0 0.003)"><g transform="translate(0 0)"><path class="a" d="M11.219,14.962a3.744,3.744,0,0,1,3.74-3.74h4.986V1.25A1.246,1.246,0,0,0,18.7,0H1.247A1.246,1.246,0,0,0,0,1.25V28.674a1.246,1.246,0,0,0,1.247,1.247H18.7a1.246,1.246,0,0,0,1.247-1.247V18.7H14.959A3.744,3.744,0,0,1,11.219,14.962Z" transform="translate(0 -0.003)"/><path class="a" d="M250.592,156.35l.011-.014c.021-.027.042-.055.061-.083.009-.013.017-.027.025-.041s.026-.041.037-.062.017-.036.026-.054.018-.037.026-.056.015-.041.023-.062.013-.034.018-.052.013-.049.019-.074.008-.029.011-.043c.007-.034.012-.068.016-.1,0-.006,0-.012,0-.018a1.254,1.254,0,0,0,0-.252c0-.006,0-.012,0-.018,0-.034-.009-.068-.016-.1,0-.015-.007-.029-.011-.043s-.012-.049-.019-.074-.012-.035-.018-.052-.014-.042-.023-.062-.017-.037-.026-.056-.016-.036-.026-.054-.024-.042-.037-.062-.016-.028-.025-.041c-.019-.029-.04-.056-.061-.083l-.011-.014a1.242,1.242,0,0,0-.089-.1l-4.982-4.982a1.246,1.246,0,1,0-1.763,1.763l2.858,2.858h-10.7a1.247,1.247,0,0,0,0,2.493h10.7l-2.858,2.858a1.246,1.246,0,1,0,1.763,1.763l4.982-4.982A1.231,1.231,0,0,0,250.592,156.35Z" transform="translate(-220.955 -140.604)"/></g></g></g></svg>