<svg xmlns="http://www.w3.org/2000/svg" width="136" height="136" viewBox="0 0 136 136"><defs><style>.a,.c{fill:#fff;}.a{opacity:0.42;}.b{opacity:0.74;}</style></defs><g transform="translate(-890 -1857)"><path class="a" d="M68,0A68,68,0,1,1,0,68,68,68,0,0,1,68,0Z" transform="translate(890 1857)"/><g class="b" transform="translate(865.5 1875)"><g transform="translate(59)"><path class="c" d="M131.083,34.5h-5.75V26.833a26.833,26.833,0,0,0-53.667,0V34.5h-5.75A1.916,1.916,0,0,0,64,36.417V84.333A7.674,7.674,0,0,0,71.667,92h53.667A7.674,7.674,0,0,0,133,84.333V36.417A1.916,1.916,0,0,0,131.083,34.5ZM104.239,74.538a1.917,1.917,0,0,1-1.905,2.128H94.667a1.917,1.917,0,0,1-1.905-2.128L93.97,63.666A7.583,7.583,0,0,1,90.833,57.5a7.667,7.667,0,0,1,15.333,0,7.583,7.583,0,0,1-3.137,6.166ZM113.833,34.5H83.167V26.833a15.333,15.333,0,1,1,30.667,0Z" transform="translate(-64)"/></g></g></g></svg>