<svg xmlns="http://www.w3.org/2000/svg" width="27.739" height="27.734" viewBox="0 0 27.739 27.734"><defs><style>.a{fill:#229de8;}</style></defs><g transform="translate(35.619 -393.071)"><path class="a" d="M3.074,21.647a11.394,11.394,0,0,0,1.019,2.42l-1.23,1.551a1.273,1.273,0,0,0,.1,1.687l2.119,2.119a1.268,1.268,0,0,0,1.687.1L8.305,28.3a11.2,11.2,0,0,0,2.515,1.064l.231,1.983a1.27,1.27,0,0,0,1.26,1.125h3a1.27,1.27,0,0,0,1.26-1.125l.221-1.913a11.327,11.327,0,0,0,2.7-1.089l1.491,1.18a1.273,1.273,0,0,0,1.687-.1l2.119-2.119a1.268,1.268,0,0,0,.1-1.687l-1.16-1.471a11.065,11.065,0,0,0,1.11-2.651l1.787-.206a1.27,1.27,0,0,0,1.125-1.26v-3a1.27,1.27,0,0,0-1.125-1.26l-1.762-.206a11.136,11.136,0,0,0-1.064-2.621l1.084-1.371a1.273,1.273,0,0,0-.1-1.687L22.664,7.78a1.268,1.268,0,0,0-1.687-.1l-1.33,1.054a11.174,11.174,0,0,0-2.756-1.155l-.2-1.722a1.27,1.27,0,0,0-1.26-1.125h-3a1.27,1.27,0,0,0-1.26,1.125l-.2,1.722A11.127,11.127,0,0,0,8.145,8.779L6.764,7.684a1.273,1.273,0,0,0-1.687.1L2.958,9.9a1.268,1.268,0,0,0-.1,1.687l1.155,1.461a10.922,10.922,0,0,0-1.044,2.646L1.126,15.9A1.27,1.27,0,0,0,0,17.163v3a1.27,1.27,0,0,0,1.125,1.26Zm10.86-8.108a4.955,4.955,0,1,1-4.955,4.955A4.963,4.963,0,0,1,13.933,13.538Z" transform="translate(-35.62 388.333)"/></g></svg>