<svg xmlns="http://www.w3.org/2000/svg" width="136.002" height="136.003" viewBox="0 0 136.002 136.003"><defs><style>.a{opacity:0.72;}.b,.c{fill:#fff;}.c{opacity:0.75;}</style></defs><g class="a" transform="translate(-0.001)"><g transform="translate(0.001)"><g transform="translate(0)"><circle class="b" cx="5.312" cy="5.312" r="5.312" transform="translate(62.689 97.182)"/><path class="b" d="M143.316,68.248h-29.64a2.949,2.949,0,0,0-3.013,2.87v56.03a2.947,2.947,0,0,0,3.013,2.87h29.64a2.949,2.949,0,0,0,3.013-2.87V71.118A2.948,2.948,0,0,0,143.316,68.248Z" transform="translate(-60.495 -37.308)"/><path class="c" d="M68,0a68,68,0,1,0,68,68A68,68,0,0,0,68,0ZM94.456,101.558a9.407,9.407,0,0,1-9.406,9.406h-34.1a9.407,9.407,0,0,1-9.406-9.406V34.147a9.407,9.407,0,0,1,9.406-9.406h34.1a9.407,9.407,0,0,1,9.406,9.406Z" transform="translate(-0.001)"/></g></g></g></svg>