<svg xmlns="http://www.w3.org/2000/svg" width="27.889" height="20.881" viewBox="0 0 27.889 20.881"><defs><style>.a{fill:#fff;}</style></defs><g transform="translate(0 0)"><path class="a" d="M27.89,59.912a12.19,12.19,0,0,1-3.285.831,5.4,5.4,0,0,0,2.515-2.916,12.144,12.144,0,0,1-3.635,1.28,5.94,5.94,0,0,0-4.176-1.666,5.511,5.511,0,0,0-5.721,5.272,4.894,4.894,0,0,0,.148,1.2A16.737,16.737,0,0,1,1.944,58.4a4.924,4.924,0,0,0-.774,2.65,5.176,5.176,0,0,0,2.544,4.389,6.1,6.1,0,0,1-2.591-.662v.066a5.407,5.407,0,0,0,4.589,5.171A6.258,6.258,0,0,1,4.2,70.2a5.943,5.943,0,0,1-1.077-.1,5.686,5.686,0,0,0,5.343,3.662,12.112,12.112,0,0,1-7.105,2.254A13.179,13.179,0,0,1,0,75.949,17.182,17.182,0,0,0,8.77,78.322c10.524,0,16.277-8.035,16.277-15l-.019-.683A10.979,10.979,0,0,0,27.89,59.912Z" transform="translate(-0.001 -57.441)"/></g></svg>